<svg xmlns="http://www.w3.org/2000/svg" style="display:none">
  <symbol id="icon-heart" viewBox="0 0 20 20" class="fill-current w-1em h-1em">
    <path d="M3.172 5a5 5 0 000 7.071l6.364 6.364a1 1 0 001.414 0l6.364-6.364a5 5 0 00-7.071-7.071l-.707.707-.707-.707A5 5 0 003.172 5z"/>
  </symbol>
  <symbol id="icon-star" viewBox="0 0 20 20" class="fill-current w-1em h-1em">
    <path d="M9.049 2.927c.3-.921 1.603-.921 1.902 0l1.618 4.974a1 1 0 00.95.69h5.262c.969 0 1.371 1.24.588 1.81l-4.267 3.1a1 1 0 00-.364 1.118l1.618 4.974c.3.921-.755 1.688-1.539 1.118l-4.267-3.1a1 1 0 00-1.176 0l-4.267 3.1c-.784.57-1.838-.197-1.539-1.118l1.618-4.974a1 1 0 00-.364-1.118L.579 9.4c-.783-.57-.38-1.81.588-1.81h5.262a1 1 0 00.95-.69l1.618-4.974z"/>
  </symbol>
</svg>